<svg version="1.1" id="Layer_1" xmlns="http://www.w3.org/2000/svg" x="0" y="0" viewBox="-125 386.7 345 68.2" style="enable-background:new -125 386.7 345 68.2" xml:space="preserve"><style>.st0{fill:#fff}</style><path class="st0" d="M-112.2 454.9h-7c-2.1 0-3.7-1.7-3.7-3.7 0-2.1 1.7-3.7 3.7-3.7h7.1c2.1 0 3.7 1.7 3.7 3.7-.1 2-1.7 3.7-3.8 3.7zM-114.2 409.8h-7.1c-2.1 0-3.7-1.7-3.7-3.7 0-2.1 1.7-3.7 3.7-3.7h7.1c2.1 0 3.7 1.7 3.7 3.7s-1.6 3.7-3.7 3.7zM-43.4 429.4c0-10 4.9-20 14.5-25-1.8-1.5-3.9-2.1-7.8-2.1h-16.9v-5.6c0-2.1-1.8-3.9-4.1-3.9H-75c-2.3 0-4.1 1.7-4.1 3.9v5.6h-21.1c-2.1 0-3.7 1.7-3.7 3.7 0 2.1 1.7 3.7 3.7 3.7h7.2c2.1 0 3.7 1.7 3.7 3.7s-1.7 3.7-3.7 3.7h-23.7c-2.1 0-3.7 1.7-3.7 3.7 0 2.1 1.7 3.7 3.7 3.7h14.7c2.1 0 3.7 1.7 3.7 3.7 0 2.1-1.7 3.7-3.7 3.7h-7.2c-2.1 0-3.7 1.7-3.7 3.7s1.7 3.7 3.7 3.7h21.4c2.1 0 3.7 1.7 3.7 3.7 0 2.1-1.7 3.7-3.7 3.7h-9.4c-2.1 0-3.7 1.7-3.7 3.7 0 2.1 1.7 3.7 3.7 3.7h60.5c2.2 0 4.2-.6 5.9-1.5-8.4-4.5-12.6-13.9-12.6-23.2zM-59 402.3h-14.7v-3.5c0-1.4 1.2-2.6 2.7-2.6h9.2c1.5 0 2.7 1.2 2.7 2.6l.1 3.5z"/><g><path class="st0" d="M1.8 446.1c0 1.4-.7 2.5-1.8 3.2-3.1 2-7.7 4.4-15 4.4-13 0-24.5-9-24.5-24.3S-28 405.1-15 405.1c7.3 0 11.8 2.4 15 4.4 1.1.7 1.8 1.8 1.8 3.2 0 1.7-1.6 3.7-3.5 3.7-.7 0-1.2-.1-2-.6-3.2-1.7-5.8-2.9-10.6-2.9-10.7 0-16.9 6.7-16.9 16.5s6.2 16.5 16.9 16.5c4.8 0 7.3-1.3 10.6-2.9.8-.5 1.3-.6 2-.6 2 0 3.5 2 3.5 3.7zM45 423.2v26c0 2.3-1.9 4.1-4.2 4.1s-4.1-1.8-4.1-4.1v-2.4c-3.3 3.4-8.6 7-17.3 7-8 0-15-5.1-15-13.8s6.8-14.9 21.1-14.9h11.1v-.7c0-8.2-4-11.4-12.3-11.4-5.1 0-8.8 1.1-12.2 2.2-.4.1-.8.2-1.2.2-1.8 0-3.4-1.5-3.4-3.5 0-1.6.8-2.8 2.4-3.5 4.3-1.8 9.4-3.3 15.9-3.3 13.4 0 19.2 9.1 19.2 18.1zm-8.4 16.3v-7.7h-10c-8.6 0-13.9 2-13.9 7.3 0 3.9 2.3 7.3 9.7 7.3 5.8 0 11.1-3.3 14.2-6.9zM81.8 409.2c0 2.4-1.8 3.9-4.2 3.9h-.5c-6.1 0-11 3.3-14.2 8.1v27.9c0 2.3-1.9 4.1-4.2 4.1s-4.1-1.8-4.1-4.1v-39.4c0-2.3 1.8-4.2 4.1-4.2s4.2 1.9 4.2 4.2v4c3.3-4.4 8.1-8.6 14.4-8.6h.5c2.2 0 4 1.8 4 4.1zM95 391.8c0 2.6-2.1 4.7-4.7 4.7h-.6c-2.6 0-4.7-2.1-4.7-4.7v-.4c0-2.6 2.1-4.7 4.7-4.7h.6c2.6 0 4.7 2.1 4.7 4.7v.4zm-.8 17.9v39.4c0 2.3-1.8 4.1-4.2 4.1-2.3 0-4.1-1.8-4.1-4.1v-39.4c0-2.4 1.8-4.2 4.1-4.2 2.4 0 4.2 1.9 4.2 4.2zM144 446.3c0 1.5-1.1 2.7-2.4 3.4-4 2.3-8.1 4-16.1 4-15 0-23.8-8.9-23.8-24.3 0-12.4 6.7-24.3 21.9-24.3 14.1 0 21.9 10.9 21.9 23.1 0 2.3-1.7 4.1-4.2 4.1h-31.1c.9 8.3 6.2 13.6 16.1 13.6 5.5 0 9-1.1 12.4-2.8.6-.3 1-.4 1.7-.4 1.8 0 3.6 1.5 3.6 3.6zm-33.8-20.8h27.1c-.6-9.5-7.7-13.4-13.6-13.4s-13 3.9-13.5 13.4zM179.5 409.2c0 2.4-1.8 3.9-4.2 3.9h-.5c-6.1 0-11 3.3-14.2 8.1v27.9c0 2.3-1.9 4.1-4.2 4.1-2.3 0-4.1-1.8-4.1-4.1v-39.4c0-2.3 1.8-4.2 4.1-4.2s4.2 1.9 4.2 4.2v4c3.3-4.4 8.1-8.6 14.4-8.6h.5c2.3 0 4 1.8 4 4.1zM220 423.2v26c0 2.3-1.9 4.1-4.2 4.1-2.3 0-4.1-1.8-4.1-4.1v-2.4c-3.3 3.4-8.6 7-17.3 7-8 0-15-5.1-15-13.8s6.8-14.9 21.1-14.9h11.1v-.7c0-8.2-4-11.4-12.3-11.4-5.1 0-8.8 1.1-12.2 2.2-.4.1-.8.2-1.2.2-1.8 0-3.4-1.5-3.4-3.5 0-1.6.8-2.8 2.4-3.5 4.3-1.8 9.4-3.3 15.9-3.3 13.4 0 19.2 9.1 19.2 18.1zm-8.4 16.3v-7.7h-10c-8.6 0-13.9 2-13.9 7.3 0 3.9 2.3 7.3 9.7 7.3 5.8 0 11.1-3.3 14.2-6.9z"/></g></svg>